v 0.87849599 0.028752 1.28797996
v 1.88638997 0.028752 1.28797996
v 1.88638997 0.028752 1.02567995
v 0.87849599 0.028752 1.02567995
v -0.45298901 0.028752 1.28797996
v -0.45298901 0.028752 1.02567995
v -1.46089005 0.028752 1.28797996
v -1.46089005 0.028752 1.02567995
v -0.45298901 0.028752 0.52095997
v -0.51571298 0.028752 0.52095997
v 0.87849599 0.028752 0.52095997
v 0.94121999 0.028752 0.52095997
v 3.01490998 0.028752 2.2151401
v 3.01490998 0.028752 1.28797996
v 1.88638997 0.028752 2.2151401
v 0.87849599 0.028752 2.2151401
v -0.45298901 0.028752 2.2151401
v -1.26699996 0.028752 2.2151401
v 1.88638997 0.028752 3.51944995
v 1.88638997 0.028752 8.0521698
v 3.01490998 0.028752 8.0521698
v 3.01490998 0.028752 3.51944995
v 0.87849599 0.028752 3.51944995
v 0.87849599 0.028752 8.0521698
v -0.45298901 0.028752 3.51944995
v -0.45298901 0.028752 8.0521698
v -1.26699996 0.028752 3.51944995
v -1.46089005 0.028752 8.0521698
v -2.4555099 0.028752 2.2151401
v -1.92428994 0.028752 2.2151401
v -1.92428994 0.028752 1.28797996
v -2.4555099 0.028752 1.28797996
v -2.4555099 0.028752 8.0521698
v -1.92428994 0.028752 8.0521698
v -1.92428994 0.028752 3.51944995
v -2.4555099 0.028752 3.51944995
v 1.88638997 0.028752 2.48060989
v 3.01490998 0.028752 2.48060989
v 1.88638997 0.028752 3.25397992
v 3.01490998 0.028752 3.25397992
v 0.87849599 0.028752 2.48060989
v 0.87849599 0.028752 3.25397992
v -0.45298901 0.028752 2.48060989
v -0.45298901 0.028752 3.25397992
v -1.26699996 0.028752 2.48060989
v -1.26699996 0.028752 3.25397992
v -1.92428994 0.028752 3.25397992
v -1.92428994 0.028752 2.48060989
vn 0 1 0
vn 0 1 0
vn 0 1 0
vt 1.27962995 0.37599799
vt 1.27962995 0.139024
vt 1.34130001 0.139024
vt 1.34130001 0.37599799
vt 1.27962995 0.689053
vt 1.34130001 0.689053
vt 1.27962995 0.926027
vt 1.34130001 0.926027
vt 1.45997 0.689053
vt 1.45997 0.70380002
vt 1.45997 0.37599799
vt 1.45997 0.361251
vt 1.06164002 -0.12630799
vt 1.27962995 -0.12630799
vt 1.06164002 0.139024
vt 1.06164002 0.37599799
vt 1.06164002 0.689053
vt 1.06164002 0.88044101
vt 0.75497401 0.139024
vt -0.310745 0.139024
vt -0.310745 -0.12630799
vt 0.75497401 -0.12630799
vt 0.75497401 0.37599799
vt -0.310745 0.37599799
vt 0.75497401 0.689053
vt -0.310745 0.689053
vt 0.75497401 0.88044101
vt -0.310745 0.926027
vt 1.06164002 1.15988004
vt 1.06164002 1.03498006
vt 1.27962995 1.03498006
vt 1.27962995 1.15988004
vt -0.310745 1.15988004
vt -0.310745 1.03498006
vt 0.75497401 1.03498006
vt 0.75497401 1.15988004
vt 0.99922299 0.139024
vt 0.99922299 -0.12630799
vt 0.81739098 0.139024
vt 0.81739098 -0.12630799
vt 0.99922299 0.37599799
vt 0.81739098 0.37599799
vt 0.99922299 0.689053
vt 0.81739098 0.689053
vt 0.99922299 0.88044101
vt 0.81739098 0.88044101
vt 0.81739098 1.03498006
vt 0.99922299 1.03498006
f 1/1/1 2/2/1 3/3/1
f 1/1/1 3/3/1 4/4/1
f 5/5/1 1/1/1 4/4/1
f 5/5/1 4/4/1 6/6/1
f 7/7/2 5/5/1 6/6/1
f 7/7/2 6/6/1 8/8/1
f 8/8/1 6/6/1 9/9/1
f 8/8/1 9/9/1 10/10/1
f 6/6/1 4/4/1 11/11/1
f 6/6/1 11/11/1 9/9/1
f 4/4/1 3/3/1 12/12/2
f 4/4/1 12/12/2 11/11/1
f 13/13/1 14/14/1 2/2/1
f 13/13/1 2/2/1 15/15/3
f 1/1/1 16/16/2 15/15/3
f 1/1/1 15/15/3 2/2/1
f 5/5/1 17/17/1 16/16/2
f 5/5/1 16/16/2 1/1/1
f 7/7/2 18/18/1 17/17/1
f 7/7/2 17/17/1 5/5/1
f 19/19/2 20/20/1 21/21/2
f 19/19/2 21/21/2 22/22/1
f 23/23/1 24/24/1 20/20/1
f 23/23/1 20/20/1 19/19/2
f 25/25/1 26/26/3 24/24/1
f 25/25/1 24/24/1 23/23/1
f 27/27/2 28/28/1 26/26/3
f 27/27/2 26/26/3 25/25/1
f 29/29/1 30/30/1 31/31/1
f 29/29/1 31/31/1 32/32/1
f 30/30/1 18/18/1 7/7/2
f 30/30/1 7/7/2 31/31/1
f 33/33/1 34/34/1 35/35/2
f 33/33/1 35/35/2 36/36/1
f 34/34/1 28/28/1 27/27/2
f 34/34/1 27/27/2 35/35/2
f 15/15/3 37/37/2 38/38/3
f 15/15/3 38/38/3 13/13/1
f 37/37/2 39/39/1 40/40/2
f 37/37/2 40/40/2 38/38/3
f 39/39/1 19/19/2 22/22/1
f 39/39/1 22/22/1 40/40/2
f 16/16/2 41/41/2 37/37/2
f 16/16/2 37/37/2 15/15/3
f 41/41/2 42/42/2 39/39/1
f 41/41/2 39/39/1 37/37/2
f 42/42/2 23/23/1 19/19/2
f 42/42/2 19/19/2 39/39/1
f 17/17/1 43/43/1 41/41/2
f 17/17/1 41/41/2 16/16/2
f 43/43/1 44/44/1 42/42/2
f 43/43/1 42/42/2 41/41/2
f 44/44/1 25/25/1 23/23/1
f 44/44/1 23/23/1 42/42/2
f 18/18/1 45/45/1 43/43/1
f 18/18/1 43/43/1 17/17/1
f 45/45/1 46/46/1 44/44/1
f 45/45/1 44/44/1 43/43/1
f 46/46/1 27/27/2 25/25/1
f 46/46/1 25/25/1 44/44/1
f 27/27/2 46/46/1 47/47/1
f 27/27/2 47/47/1 35/35/2
f 46/46/1 45/45/1 48/48/1
f 46/46/1 48/48/1 47/47/1
f 45/45/1 18/18/1 30/30/1
f 45/45/1 30/30/1 48/48/1
