v 0.60669601 0.46624699 2.78482008
v 0.38966799 0.46624699 2.86075997
v 0.48380801 0.46624699 3.12980008
v 0.700836 0.46624699 3.05385995
v 0.38966799 0.46193701 2.86075997
v 0.60669601 0.46193701 2.78482008
v 0.700836 0.46193701 3.05385995
v 0.48380801 0.46193701 3.12980008
v 0.389382 0.46624699 2.86086011
v 0.38421801 0.46624699 2.86266994
v 0.47835901 0.46624699 3.13171005
v 0.483522 0.46624699 3.12989998
v 0.38421801 0.46193701 2.86266994
v 0.389382 0.46193701 2.86086011
v 0.483522 0.46193701 3.12989998
v 0.47835901 0.46193701 3.13171005
v 0.38966799 0.46624699 2.86075997
v 0.389525 0.46631801 2.86081004
v 0.48366499 0.46631801 3.12984991
v 0.48380801 0.46624699 3.12980008
v 0.389525 0.46631801 2.86081004
v 0.389382 0.46624699 2.86086011
v 0.483522 0.46624699 3.12989998
v 0.48366499 0.46631801 3.12984991
v 0.389525 0.46193701 2.86081004
v 0.48366499 0.46193701 3.12984991
v 0.38421801 0.46624699 2.86266994
v 0.383825 0.46567401 2.86279988
v 0.47796601 0.46567401 3.13185
v 0.47835901 0.46624699 3.13171005
v 0.383825 0.46567401 2.86279988
v 0.383825 0.46249199 2.86279988
v 0.47796601 0.46249199 3.13185
v 0.47796601 0.46567401 3.13185
v 0.383825 0.46249199 2.86279988
v 0.38421801 0.46193701 2.86266994
v 0.47835901 0.46193701 3.13171005
v 0.47796601 0.46249199 3.13185
v 0.60669601 0.46567401 2.78482008
v 0.60669601 0.46624699 2.78482008
v 0.700836 0.46624699 3.05385995
v 0.700836 0.46567401 3.05385995
v 0.700836 0.46249199 3.05385995
v 0.60669601 0.46249199 2.78482008
v 0.700836 0.46193701 3.05385995
v 0.60669601 0.46193701 2.78482008
v 0.60669601 0.46624699 2.78482008
v 0.60669601 0.46567401 2.78482008
v 0.38966799 0.46567401 2.86075997
v 0.38966799 0.46624699 2.86075997
v 0.60669601 0.46249199 2.78482008
v 0.38966799 0.46249199 2.86075997
v 0.60669601 0.46193701 2.78482008
v 0.38966799 0.46193701 2.86075997
v 0.48380801 0.46624699 3.12980008
v 0.48380801 0.46567401 3.12980008
v 0.700836 0.46567401 3.05385995
v 0.700836 0.46624699 3.05385995
v 0.48380801 0.46249199 3.12980008
v 0.700836 0.46249199 3.05385995
v 0.48380801 0.46193701 3.12980008
v 0.700836 0.46193701 3.05385995
v 0.389382 0.46624699 2.86086011
v 0.389382 0.46567401 2.86086011
v 0.383825 0.46567401 2.86279988
v 0.38421801 0.46624699 2.86266994
v 0.389382 0.46249199 2.86086011
v 0.383825 0.46249199 2.86279988
v 0.389382 0.46249199 2.86086011
v 0.389382 0.46193701 2.86086011
v 0.38421801 0.46193701 2.86266994
v 0.383825 0.46249199 2.86279988
v 0.47835901 0.46624699 3.13171005
v 0.47796601 0.46567401 3.13185
v 0.483522 0.46567401 3.12989998
v 0.483522 0.46624699 3.12989998
v 0.47796601 0.46567401 3.13185
v 0.47796601 0.46249199 3.13185
v 0.483522 0.46249199 3.12989998
v 0.483522 0.46567401 3.12989998
v 0.47835901 0.46193701 3.13171005
v 0.483522 0.46193701 3.12989998
v 0.389525 0.46631801 2.86081004
v 0.389525 0.46577901 2.86081004
v 0.389382 0.46567401 2.86086011
v 0.389382 0.46624699 2.86086011
v 0.389525 0.46577901 2.86081004
v 0.389525 0.46254501 2.86081004
v 0.389382 0.46249199 2.86086011
v 0.389382 0.46567401 2.86086011
v 0.389525 0.46254501 2.86081004
v 0.389525 0.46193701 2.86081004
v 0.389382 0.46193701 2.86086011
v 0.389382 0.46249199 2.86086011
v 0.38966799 0.46624699 2.86075997
v 0.38966799 0.46567401 2.86075997
v 0.38966799 0.46567401 2.86075997
v 0.38966799 0.46249199 2.86075997
v 0.389525 0.46254501 2.86081004
v 0.389525 0.46577901 2.86081004
v 0.38966799 0.46249199 2.86075997
v 0.38966799 0.46193701 2.86075997
v 0.389525 0.46193701 2.86081004
v 0.389525 0.46254501 2.86081004
v 0.48366499 0.46631801 3.12984991
v 0.48366499 0.46577901 3.12984991
v 0.48380801 0.46567401 3.12980008
v 0.48380801 0.46624699 3.12980008
v 0.48366499 0.46577901 3.12984991
v 0.48366499 0.46254501 3.12984991
v 0.48380801 0.46249199 3.12980008
v 0.48380801 0.46567401 3.12980008
v 0.48366499 0.46254501 3.12984991
v 0.48366499 0.46193701 3.12984991
v 0.48380801 0.46193701 3.12980008
v 0.48380801 0.46249199 3.12980008
v 0.483522 0.46624699 3.12989998
v 0.483522 0.46567401 3.12989998
v 0.48366499 0.46577901 3.12984991
v 0.48366499 0.46631801 3.12984991
v 0.483522 0.46567401 3.12989998
v 0.483522 0.46249199 3.12989998
v 0.48366499 0.46254501 3.12984991
v 0.48366499 0.46577901 3.12984991
v 0.48366499 0.46193701 3.12984991
v 0.48366499 0.46254501 3.12984991
vn 0 1 0
vn 0 -1 0
vn 0.40259999 0.90439999 -0.1409
vn -0.4025 0.90450001 0.1409
vn -0.76349998 0.588 0.26710001
vn -0.94389999 0 0.3303
vn -0.75520003 -0.59979999 0.26429999
vn 0.94389999 0 -0.3303
vn -0.3303 0 -0.94389999
vn 0.3303 0 0.94389999
vn -0.33019999 0 -0.94389999
vn 0.3303 0.0001 0.94389999
vn -0.33059999 0 -0.94379997
vn -0.32980001 0 -0.94400001
vn -0.33149999 0 -0.94340003
vn -0.32980001 0 -0.94410002
vn 0.3294 0 0.94419998
vn 0.3281 0 0.94459999
vn 0.3292 0 0.9443
vn 0.33059999 0 0.94379997
vn 0.32980001 0 0.94400001
vt 0.96020103 0.99868298
vt 0.0211767 0.99868298
vt 0.018098 0.00131831
vt 0.96020103 0.00131831
vt 0.0203036 0.99868298
vt 0.00453844 0.99868298
vt 0.00146238 0.00131831
vt 0.0172248 0.00131831
vt 0.0207402 0.99868298
vt 0.0176614 0.00131831
vt 0.00333928 0.99868298
vt 0.00026206 0.00131831
f 1/1/1 2/2/1 3/3/1
f 1/1/1 3/3/1 4/4/1
f 5/2/2 6/1/2 7/4/2
f 5/2/2 7/4/2 8/3/2
f 9/5/1 10/6/1 11/7/1
f 9/5/1 11/7/1 12/8/1
f 13/6/2 14/5/2 15/8/2
f 13/6/2 15/8/2 16/7/2
f 17/2/3 18/9/3 19/10/3
f 17/2/3 19/10/3 20/3/3
f 21/9/4 22/5/4 23/8/4
f 21/9/4 23/8/4 24/10/4
f 14/5/2 25/9/2 26/10/2
f 14/5/2 26/10/2 15/8/2
f 25/9/2 5/2/2 8/3/2
f 25/9/2 8/3/2 26/10/2
f 27/6/5 28/11/5 29/12/5
f 27/6/5 29/12/5 30/7/5
f 31/11/6 32/11/6 33/12/6
f 31/11/6 33/12/6 34/12/6
f 35/11/7 36/6/7 37/7/7
f 35/11/7 37/7/7 38/12/7
f 39/1/8 40/1/8 41/4/8
f 39/1/8 41/4/8 42/4/8
f 42/4/8 43/4/8 44/1/8
f 42/4/8 44/1/8 39/1/8
f 43/4/8 45/4/8 46/1/8
f 43/4/8 46/1/8 44/1/8
f 47/1/9 48/1/9 49/2/9
f 47/1/9 49/2/9 50/2/9
f 48/1/9 51/1/9 52/2/9
f 48/1/9 52/2/9 49/2/9
f 51/1/9 53/1/9 54/2/9
f 51/1/9 54/2/9 52/2/9
f 55/3/10 56/3/10 57/4/10
f 55/3/10 57/4/10 58/4/10
f 56/3/10 59/3/10 60/4/10
f 56/3/10 60/4/10 57/4/10
f 59/3/10 61/3/10 62/4/10
f 59/3/10 62/4/10 60/4/10
f 63/5/9 64/5/9 65/11/9
f 63/5/9 65/11/9 66/6/9
f 64/5/9 67/5/9 68/11/9
f 64/5/9 68/11/9 65/11/9
f 69/5/11 70/5/11 71/6/11
f 69/5/11 71/6/11 72/11/11
f 73/7/12 74/12/12 75/8/12
f 73/7/12 75/8/12 76/8/12
f 77/12/10 78/12/10 79/8/10
f 77/12/10 79/8/10 80/8/10
f 78/12/10 81/7/10 82/8/10
f 78/12/10 82/8/10 79/8/10
f 83/9/13 84/9/13 85/5/13
f 83/9/13 85/5/13 86/5/13
f 87/9/14 88/9/14 89/5/14
f 87/9/14 89/5/14 90/5/14
f 91/9/15 92/9/15 93/5/15
f 91/9/15 93/5/15 94/5/15
f 95/2/13 96/2/13 84/9/13
f 95/2/13 84/9/13 83/9/13
f 97/2/16 98/2/16 99/9/16
f 97/2/16 99/9/16 100/9/16
f 101/2/9 102/2/9 103/9/9
f 101/2/9 103/9/9 104/9/9
f 105/10/17 106/10/17 107/3/17
f 105/10/17 107/3/17 108/3/17
f 109/10/18 110/10/18 111/3/18
f 109/10/18 111/3/18 112/3/18
f 113/10/19 114/10/19 115/3/19
f 113/10/19 115/3/19 116/3/19
f 117/8/20 118/8/20 119/10/20
f 117/8/20 119/10/20 120/10/20
f 121/8/21 122/8/21 123/10/21
f 121/8/21 123/10/21 124/10/21
f 79/8/10 82/8/10 125/10/10
f 79/8/10 125/10/10 126/10/10
