v -2.29201007 1.33184004 1.59263003
v -2.27010012 1.30236006 1.56879997
v -2.26988006 1.33184004 1.56856
v -2.29234004 1.30236006 1.59299004
v -2.24784994 1.30236006 1.54461002
v -2.24775004 1.33184004 1.54448998
v -2.22561002 1.30236006 1.52041996
v -2.22561002 1.33184004 1.52041996
v -2.20337009 1.30236006 1.49623001
v -2.20348001 1.33184004 1.49635005
v -2.18112993 1.30236006 1.47204006
v -2.18133998 1.33184004 1.47228003
v -2.15888 1.30236006 1.44784999
v -2.15920997 1.33184004 1.44821
v -2.26998997 1.27287996 1.56868005
v -2.29218006 1.27287996 1.59281003
v -2.24780011 1.27287996 1.54454994
v -2.22561002 1.27287996 1.52041996
v -2.20341992 1.27287996 1.49628997
v -2.18124008 1.27287996 1.47215998
v -2.15904999 1.27287996 1.44802999
v -2.26918006 1.24339998 1.56780005
v -2.29097009 1.24339998 1.59149003
v -2.24740005 1.24339998 1.54410994
v -2.22561002 1.24339998 1.52041996
v -2.20383 1.24339998 1.49672997
v -2.18203998 1.24339998 1.47303998
v -2.16025996 1.24339998 1.44935
v -2.2686801 1.23325002 1.56726003
v -2.29022002 1.23325002 1.59068
v -2.24714994 1.23325002 1.54384005
v -2.22561002 1.23325002 1.52041996
v -2.2040801 1.23325002 1.49699998
v -2.18253994 1.23325002 1.47358
v -2.16101003 1.23325002 1.45016003
v -2.2902 1.36131001 1.59064996
v -2.26867008 1.36131001 1.56724
v -2.24713993 1.36131001 1.54383004
v -2.22561002 1.36131001 1.52041996
v -2.2040801 1.36131001 1.49700999
v -2.18255997 1.36131001 1.47360003
v -2.16103005 1.36131001 1.45018995
v -2.28853011 1.37493002 1.58884001
v -2.26754999 1.37493002 1.56603003
v -2.24657989 1.37493002 1.54323006
v -2.22561002 1.37493002 1.52041996
v -2.20463991 1.37493002 1.49760997
v -2.18367004 1.37493002 1.47481
v -2.16269994 1.37493002 1.45200002
v -2.26799011 1.22113001 1.56650996
v -2.28918004 1.22113001 1.58955002
v -2.24679995 1.22113001 1.54346001
v -2.22561002 1.22113001 1.52041996
v -2.20442009 1.22113001 1.49738002
v -2.18322992 1.22113001 1.47432995
v -2.16204 1.22113001 1.45129001
v -2.22561002 1.39078999 1.52041996
v -2.20536995 1.39078999 1.49840999
v -2.24585009 1.39078999 1.54243004
v -2.26608992 1.38925004 1.56444001
v -2.18512988 1.38925004 1.47640002
v -2.16489005 1.38619006 1.45439005
v -2.28632998 1.38619006 1.58644998
v -2.22561002 1.21235001 1.52041996
v -2.24585009 1.21235001 1.54243004
v -2.20536995 1.21235001 1.49840999
v -2.18512988 1.21235001 1.47640002
v -2.16489005 1.21235001 1.45439005
v -2.26608992 1.21235001 1.56444001
v -2.28632998 1.21235001 1.58644998
v -2.15212989 1.30236006 1.44052005
v -2.15249991 1.33184004 1.44090998
v -2.14444995 1.30236006 1.43216002
v -2.14485002 1.33184004 1.43260002
v -2.15230989 1.27287996 1.44070995
v -2.14464998 1.27287996 1.43237996
v -2.15365005 1.24339998 1.44216001
v -2.14613008 1.24339998 1.43397999
v -2.15446997 1.23325002 1.44306004
v -2.14703012 1.23325002 1.43497002
v -2.15450001 1.36131001 1.44307995
v -2.14705992 1.36131001 1.43499994
v -2.15633988 1.37493002 1.44508004
v -2.14909005 1.37493002 1.43720996
v -2.15561008 1.22113001 1.44430006
v -2.14829993 1.22113001 1.43633997
v -2.16059995 1.38540995 1.44973004
v -2.15573001 1.38452005 1.44441998
v -2.15844011 1.21294999 1.44737005
v -2.15050006 1.21519995 1.43874002
v -2.30637002 1.33184004 1.60824001
v -2.29956007 1.30236006 1.60082996
v -2.29919004 1.33184004 1.60044003
v -2.30677009 1.30236006 1.60868001
v -2.29937005 1.27287996 1.60063004
v -2.30657005 1.27287996 1.60845995
v -2.2980299 1.24339998 1.59916997
v -2.30509996 1.24339998 1.60686004
v -2.29719996 1.23325002 1.59827006
v -2.30418992 1.23325002 1.60587001
v -2.30416012 1.36131001 1.60583997
v -2.29717994 1.36131001 1.59825003
v -2.30212998 1.37493002 1.60362995
v -2.29533005 1.37493002 1.59624004
v -2.29605007 1.22113001 1.59702003
v -2.30293012 1.22113001 1.60450006
v -2.29550004 1.38452005 1.59642005
v -2.29092002 1.38536 1.59143996
v -2.29278994 1.21294999 1.59346998
v -2.30071998 1.21519995 1.60210001
vn 0.73610002 0 0.67690003
vt 0.10091 0.665465
vt 0.232619 0.50429797
vt 0.23394001 0.665465
vt 0.0989259 0.50429797
vt 0.36631301 0.50429797
vt 0.36697 0.665465
vt 0.5 0.50429797
vt 0.5 0.665465
vt 0.63369298 0.50429797
vt 0.63303602 0.665465
vt 0.76738697 0.50429797
vt 0.76606601 0.665465
vt 0.90108001 0.50429797
vt 0.89909601 0.665465
vt 0.23327699 0.34313101
vt 0.0999149 0.34313101
vt 0.36663899 0.34313101
vt 0.5 0.34313101
vt 0.633362 0.34313101
vt 0.76672399 0.34313101
vt 0.90008497 0.34313101
vt 0.238129 0.181963
vt 0.107194 0.181963
vt 0.36906499 0.181963
vt 0.5 0.181963
vt 0.63093501 0.181963
vt 0.761877 0.181963
vt 0.89281201 0.181963
vt 0.241119 0.12645701
vt 0.111682 0.12645701
vt 0.37056199 0.12645701
vt 0.5 0.12645701
vt 0.62944299 0.12645701
vt 0.75888097 0.12645701
vt 0.88832402 0.12645701
vt 0.11182 0.82663202
vt 0.24121401 0.82663202
vt 0.37060699 0.82663202
vt 0.5 0.82663202
vt 0.62939399 0.82663202
vt 0.75879198 0.82663202
vt 0.88818598 0.82663202
vt 0.121857 0.901079
vt 0.247906 0.901079
vt 0.37395599 0.901079
vt 0.5 0.901079
vt 0.62605 0.901079
vt 0.75209898 0.901079
vt 0.87814301 0.901079
vt 0.245281 0.0601951
vt 0.117922 0.0601951
vt 0.372641 0.0601951
vt 0.5 0.0601951
vt 0.62735999 0.0601951
vt 0.75471902 0.0601951
vt 0.88207799 0.0601951
vt 0.5 0.98780501
vt 0.62164998 0.98780501
vt 0.37834999 0.98780501
vt 0.25670001 0.97937399
vt 0.74330002 0.97937399
vt 0.86495 0.96267599
vt 0.13505 0.96267599
vt 0.5 0.0121951
vt 0.37834999 0.0121951
vt 0.62164998 0.0121951
vt 0.74330002 0.0121951
vt 0.86495 0.0121951
vt 0.25670001 0.0121951
vt 0.13505 0.0121951
vt 0.941643 0.50429797
vt 0.93945998 0.665465
vt 0.98780501 0.50429797
vt 0.98539501 0.665465
vt 0.94055402 0.34313101
vt 0.98659998 0.34313101
vt 0.93254 0.181963
vt 0.97775102 0.181963
vt 0.92759901 0.12645701
vt 0.972296 0.12645701
vt 0.92744899 0.82663202
vt 0.97212499 0.82663202
vt 0.91639 0.901079
vt 0.95991498 0.901079
vt 0.92072898 0.0601951
vt 0.96470201 0.0601951
vt 0.890728 0.958395
vt 0.92005402 0.95352399
vt 0.90376103 0.015443
vt 0.95145899 0.0277506
vt 0.0146106 0.665465
vt 0.0555602 0.50429797
vt 0.0577602 0.665465
vt 0.0121951 0.50429797
vt 0.0566605 0.34313101
vt 0.0134002 0.34313101
vt 0.0647245 0.181963
vt 0.0222548 0.181963
vt 0.069699 0.12645701
vt 0.0277096 0.12645701
vt 0.0278757 0.82663202
vt 0.0698479 0.82663202
vt 0.0400905 0.901079
vt 0.0809736 0.901079
vt 0.0766132 0.0601951
vt 0.0353038 0.0601951
vt 0.0799458 0.95352399
vt 0.107498 0.95810002
vt 0.0962397 0.015443
vt 0.0485412 0.0277506
f 1/1/1 2/2/1 3/3/1
f 1/1/1 4/4/1 2/2/1
f 3/3/1 5/5/1 6/6/1
f 3/3/1 2/2/1 5/5/1
f 6/6/1 7/7/1 8/8/1
f 6/6/1 5/5/1 7/7/1
f 8/8/1 9/9/1 10/10/1
f 8/8/1 7/7/1 9/9/1
f 10/10/1 11/11/1 12/12/1
f 10/10/1 9/9/1 11/11/1
f 12/12/1 13/13/1 14/14/1
f 12/12/1 11/11/1 13/13/1
f 4/4/1 15/15/1 2/2/1
f 4/4/1 16/16/1 15/15/1
f 2/2/1 17/17/1 5/5/1
f 2/2/1 15/15/1 17/17/1
f 5/5/1 18/18/1 7/7/1
f 5/5/1 17/17/1 18/18/1
f 7/7/1 19/19/1 9/9/1
f 7/7/1 18/18/1 19/19/1
f 9/9/1 20/20/1 11/11/1
f 9/9/1 19/19/1 20/20/1
f 11/11/1 21/21/1 13/13/1
f 11/11/1 20/20/1 21/21/1
f 16/16/1 22/22/1 15/15/1
f 16/16/1 23/23/1 22/22/1
f 15/15/1 24/24/1 17/17/1
f 15/15/1 22/22/1 24/24/1
f 17/17/1 25/25/1 18/18/1
f 17/17/1 24/24/1 25/25/1
f 18/18/1 26/26/1 19/19/1
f 18/18/1 25/25/1 26/26/1
f 19/19/1 27/27/1 20/20/1
f 19/19/1 26/26/1 27/27/1
f 20/20/1 28/28/1 21/21/1
f 20/20/1 27/27/1 28/28/1
f 23/23/1 29/29/1 22/22/1
f 23/23/1 30/30/1 29/29/1
f 22/22/1 31/31/1 24/24/1
f 22/22/1 29/29/1 31/31/1
f 24/24/1 32/32/1 25/25/1
f 24/24/1 31/31/1 32/32/1
f 25/25/1 33/33/1 26/26/1
f 25/25/1 32/32/1 33/33/1
f 26/26/1 34/34/1 27/27/1
f 26/26/1 33/33/1 34/34/1
f 27/27/1 35/35/1 28/28/1
f 27/27/1 34/34/1 35/35/1
f 36/36/1 3/3/1 37/37/1
f 36/36/1 1/1/1 3/3/1
f 37/37/1 6/6/1 38/38/1
f 37/37/1 3/3/1 6/6/1
f 38/38/1 8/8/1 39/39/1
f 38/38/1 6/6/1 8/8/1
f 39/39/1 10/10/1 40/40/1
f 39/39/1 8/8/1 10/10/1
f 40/40/1 12/12/1 41/41/1
f 40/40/1 10/10/1 12/12/1
f 41/41/1 14/14/1 42/42/1
f 41/41/1 12/12/1 14/14/1
f 43/43/1 37/37/1 44/44/1
f 43/43/1 36/36/1 37/37/1
f 44/44/1 38/38/1 45/45/1
f 44/44/1 37/37/1 38/38/1
f 45/45/1 39/39/1 46/46/1
f 45/45/1 38/38/1 39/39/1
f 46/46/1 40/40/1 47/47/1
f 46/46/1 39/39/1 40/40/1
f 47/47/1 41/41/1 48/48/1
f 47/47/1 40/40/1 41/41/1
f 48/48/1 42/42/1 49/49/1
f 48/48/1 41/41/1 42/42/1
f 30/30/1 50/50/1 29/29/1
f 30/30/1 51/51/1 50/50/1
f 29/29/1 52/52/1 31/31/1
f 29/29/1 50/50/1 52/52/1
f 31/31/1 53/53/1 32/32/1
f 31/31/1 52/52/1 53/53/1
f 32/32/1 54/54/1 33/33/1
f 32/32/1 53/53/1 54/54/1
f 33/33/1 55/55/1 34/34/1
f 33/33/1 54/54/1 55/55/1
f 34/34/1 56/56/1 35/35/1
f 34/34/1 55/55/1 56/56/1
f 57/57/1 47/47/1 58/58/1
f 57/57/1 46/46/1 47/47/1
f 57/57/1 45/45/1 46/46/1
f 57/57/1 59/59/1 45/45/1
f 60/60/1 45/45/1 59/59/1
f 60/60/1 44/44/1 45/45/1
f 61/61/1 47/47/1 48/48/1
f 61/61/1 58/58/1 47/47/1
f 62/62/1 48/48/1 49/49/1
f 62/62/1 61/61/1 48/48/1
f 63/63/1 44/44/1 60/60/1
f 63/63/1 43/43/1 44/44/1
f 64/64/1 52/52/1 65/65/1
f 64/64/1 53/53/1 52/52/1
f 64/64/1 54/54/1 53/53/1
f 64/64/1 66/66/1 54/54/1
f 67/67/1 54/54/1 66/66/1
f 67/67/1 55/55/1 54/54/1
f 68/68/1 55/55/1 67/67/1
f 68/68/1 56/56/1 55/55/1
f 69/69/1 52/52/1 50/50/1
f 69/69/1 65/65/1 52/52/1
f 70/70/1 50/50/1 51/51/1
f 70/70/1 69/69/1 50/50/1
f 14/14/1 71/71/1 72/72/1
f 14/14/1 13/13/1 71/71/1
f 72/72/1 73/73/1 74/74/1
f 72/72/1 71/71/1 73/73/1
f 13/13/1 75/75/1 71/71/1
f 13/13/1 21/21/1 75/75/1
f 71/71/1 76/76/1 73/73/1
f 71/71/1 75/75/1 76/76/1
f 21/21/1 77/77/1 75/75/1
f 21/21/1 28/28/1 77/77/1
f 75/75/1 78/78/1 76/76/1
f 75/75/1 77/77/1 78/78/1
f 28/28/1 79/79/1 77/77/1
f 28/28/1 35/35/1 79/79/1
f 77/77/1 80/80/1 78/78/1
f 77/77/1 79/79/1 80/80/1
f 42/42/1 72/72/1 81/81/1
f 42/42/1 14/14/1 72/72/1
f 81/81/1 74/74/1 82/82/1
f 81/81/1 72/72/1 74/74/1
f 49/49/1 81/81/1 83/83/1
f 49/49/1 42/42/1 81/81/1
f 83/83/1 82/82/1 84/84/1
f 83/83/1 81/81/1 82/82/1
f 35/35/1 85/85/1 79/79/1
f 35/35/1 56/56/1 85/85/1
f 79/79/1 86/86/1 80/80/1
f 79/79/1 85/85/1 86/86/1
f 84/84/1 87/87/1 83/83/1
f 84/84/1 88/88/1 87/87/1
f 83/83/1 62/62/1 49/49/1
f 83/83/1 87/87/1 62/62/1
f 89/89/1 56/56/1 68/68/1
f 89/89/1 85/85/1 56/56/1
f 89/89/1 86/86/1 85/85/1
f 89/89/1 90/90/1 86/86/1
f 91/91/1 92/92/1 93/93/1
f 91/91/1 94/94/1 92/92/1
f 93/93/1 4/4/1 1/1/1
f 93/93/1 92/92/1 4/4/1
f 94/94/1 95/95/1 92/92/1
f 94/94/1 96/96/1 95/95/1
f 92/92/1 16/16/1 4/4/1
f 92/92/1 95/95/1 16/16/1
f 96/96/1 97/97/1 95/95/1
f 96/96/1 98/98/1 97/97/1
f 95/95/1 23/23/1 16/16/1
f 95/95/1 97/97/1 23/23/1
f 98/98/1 99/99/1 97/97/1
f 98/98/1 100/100/1 99/99/1
f 97/97/1 30/30/1 23/23/1
f 97/97/1 99/99/1 30/30/1
f 101/101/1 93/93/1 102/102/1
f 101/101/1 91/91/1 93/93/1
f 102/102/1 1/1/1 36/36/1
f 102/102/1 93/93/1 1/1/1
f 103/103/1 102/102/1 104/104/1
f 103/103/1 101/101/1 102/102/1
f 104/104/1 36/36/1 43/43/1
f 104/104/1 102/102/1 36/36/1
f 100/100/1 105/105/1 99/99/1
f 100/100/1 106/106/1 105/105/1
f 99/99/1 51/51/1 30/30/1
f 99/99/1 105/105/1 51/51/1
f 107/107/1 104/104/1 108/108/1
f 107/107/1 103/103/1 104/104/1
f 108/108/1 43/43/1 63/63/1
f 108/108/1 104/104/1 43/43/1
f 109/109/1 51/51/1 105/105/1
f 109/109/1 70/70/1 51/51/1
f 109/109/1 106/106/1 110/110/1
f 109/109/1 105/105/1 106/106/1
