v -1.88129997 1.49918997 3.43079996
v -1.88129997 2.19397998 3.43079996
v -1.88152003 2.19623995 3.43284988
v -1.88152003 1.49693 3.43284988
v -1.88129997 2.19397998 2.32557988
v -1.88152003 2.19623995 2.32352996
v -1.88129997 1.49918997 2.32557988
v -1.88152003 1.49693 2.32352996
v -1.88152003 1.47018003 3.43817997
v -1.88152003 1.47018003 2.31820989
v -1.88152003 2.2011199 2.31820989
v -1.88152003 2.2011199 3.43817997
v -1.88126004 2.20242 3.43938994
v -1.88126004 1.46888995 3.43938994
v -1.88126004 2.20242 2.3169899
v -1.88126004 1.46888995 2.3169899
v -1.89673996 1.46888995 3.43938994
v -1.89673996 1.46888995 2.3169899
v -1.89673996 2.20242 2.3169899
v -1.89673996 2.20242 3.43938994
v -1.89673996 2.20038009 3.43748999
v -1.89673996 1.47091997 3.43748999
v -1.89673996 2.20038009 2.31889009
v -1.89673996 1.47091997 2.31889009
vn 0.99449998 0 0.1046
vn 0.99550003 0.0951 0
vn 0.99449998 0 -0.1046
vn 0.99550003 -0.0951 0
vn 1 0 0
vn 0.97869998 0 -0.2054
vn 0.98110002 -0.1936 0
vn 0.97869998 0 0.2053
vn 0.98110002 0.1936 0
vn 0 -1 0
vn 0 0 -1
vn 0 1 0
vn 0 0 1
vn -1 0 0
vn -1 0.0001 0
vn -1 -0.0001 0
vt 0.0143039 0.0267969
vt 0.0143039 0.440777
vt 0.0130079 0.442123
vt 0.0130073 0.0254509
vt 0.71296901 0.440777
vt 0.71426499 0.442123
vt 0.71296901 0.0267969
vt 0.71426499 0.0254509
vt 0.00963784 0.00951221
vt 0.71763402 0.00951221
vt 0.71763402 0.44503301
vt 0.00963859 0.44503301
vt 0.00886918 0.445804
vt 0.00886918 0.00874126
vt 0.718404 0.445804
vt 0.718404 0.00874126
vt 0.810606 0.00886918
vt 0.810606 0.718404
vt 0.73484802 0.718404
vt 0.73484802 0.00886918
vt 0.91666698 0.445804
vt 0.91666698 0.00874126
vt 0.99242401 0.00874126
vt 0.992419 0.445804
vt 0.82575798 0.718404
vt 0.82575798 0.00886918
vt 0.90151501 0.00886918
vt 0.90151501 0.718404
vt 0.99242401 0.463287
vt 0.99242401 0.90034997
vt 0.91667199 0.90034997
vt 0.91666698 0.463287
vt 0.718404 0.463287
vt 0.718404 0.90034997
vt 0.71719903 0.89913702
vt 0.71719903 0.464499
vt 0.00886918 0.90034997
vt 0.010074 0.89913702
vt 0.00886918 0.463287
vt 0.010074 0.464499
f 1/1/1 2/2/1 3/3/1
f 1/1/1 3/3/1 4/4/1
f 2/2/2 5/5/2 6/6/2
f 2/2/2 6/6/2 3/3/2
f 5/5/3 7/7/3 8/8/3
f 5/5/3 8/8/3 6/6/3
f 7/7/4 1/1/4 4/4/4
f 7/7/4 4/4/4 8/8/4
f 8/8/5 4/4/5 9/9/5
f 8/8/5 9/9/5 10/10/5
f 6/6/5 8/8/5 10/10/5
f 6/6/5 10/10/5 11/11/5
f 3/3/5 6/6/5 11/11/5
f 3/3/5 11/11/5 12/12/5
f 4/4/5 3/3/5 12/12/5
f 4/4/5 12/12/5 9/9/5
f 9/9/6 12/12/6 13/13/6
f 9/9/6 13/13/6 14/14/6
f 12/12/7 11/11/7 15/15/7
f 12/12/7 15/15/7 13/13/7
f 11/11/8 10/10/8 16/16/8
f 11/11/8 16/16/8 15/15/8
f 10/10/9 9/9/9 14/14/9
f 10/10/9 14/14/9 16/16/9
f 16/17/10 14/18/10 17/19/10
f 16/17/10 17/19/10 18/20/10
f 15/21/11 16/22/11 18/23/11
f 15/21/11 18/23/11 19/24/11
f 13/25/12 15/26/12 19/27/12
f 13/25/12 19/27/12 20/28/12
f 14/29/13 13/30/13 20/31/13
f 14/29/13 20/31/13 17/32/13
f 17/33/14 20/34/14 21/35/14
f 17/33/14 21/35/14 22/36/14
f 20/34/15 19/37/15 23/38/15
f 20/34/15 23/38/15 21/35/15
f 19/37/14 18/39/14 24/40/14
f 19/37/14 24/40/14 23/38/14
f 18/39/16 17/33/16 22/36/16
f 18/39/16 22/36/16 24/40/16
f 22/36/14 21/35/14 23/38/14
f 22/36/14 23/38/14 24/40/14
